<svg xmlns="http://www.w3.org/2000/svg" width="600" height="600" viewBox="0 0 600 600">
  <defs>
    <style>
      .cls-1 {
        fill-rule: evenodd;
      }
    </style>
  </defs>
  <path class="cls-1" d="M300-1C133.762-1-1,133.762-1,300S133.762,601,300,601,601,466.238,601,300,466.238-1,300-1ZM276.129,445.737S263.958,492.4,224.4,487.324c-36.12-4.631-41.586-38.544-51.729-50.715s-23.329-71-23.329-71l-4.057-22.315L130.07,431.537s-3.043,25.358-14.2,33.472-23.329,9.129-36.515,5.072-19.272-9.129-24.343-24.344S66.569,409.2,74.284,392.994c10.143-21.3,13.186-34.486,23.329-61.872s39.557-97.373,39.557-97.373,5.072-17.243,6.086-28.4c0.5-5.44,3.043-17.244,22.315-19.272s25.357,23.329,25.357,23.329-0.147,36.535,5.072,73.029c7.819,54.68,22.314,66.944,22.314,66.944s14.2,6.086,21.3-12.172l2.028-164.316s2.029-19.272,19.272-19.272,19.271,15.215,19.271,15.215Zm254.214-2.4c-4.245,15.919-8.49,22.287-23.348,23.348s-24.409-6.367-28.654-18.041-11.674-38.206-11.674-38.206,4.245-3.184-6.368,3.183-41.39,28.655-68.983,26.532-35.022-4.245-48.819-18.041-24.409-21.226-24.409-68.984,1.061-79.6,11.674-127.353,26.532-75.351,36.083-90.209,24.41-39.267,40.329-52,36.083-33.961,58.37-15.919,21.226,22.287,12.736,37.145-14.858,11.674-27.594,22.287-23.348,16.981-32.9,33.961-32.9,70.044-41.39,97.638-13.8,59.431-8.49,73.228c10.564,27.468,14.857,22.287,27.593,26.532s70.044-39.267,70.044-60.493-25.47-8.49-33.961-23.348-6.367-21.226-4.245-30.777,4.245-19.1,19.1-28.655,89.148,0,89.148,0,21.225,4.245,23.348,19.1-21.226,136.905-25.471,157.069S533.078,433.085,530.343,443.339Z"/>
</svg>
