<svg xmlns="http://www.w3.org/2000/svg" width="600" height="600" viewBox="0 0 600 600">
  <defs>
    <style>
      .cls-1 {
        fill-rule: evenodd;
      }
    </style>
  </defs>
  <path class="cls-1" d="M116.912,415.041s16.207,72.311,28.675,87.272,19.186,56.645,63.584,62.338c48.623,6.233,63.584-51.117,63.584-51.117l4.987-340.361s-2.494-18.7-23.689-18.7-23.688,23.688-23.688,23.688l-2.493,201.972c-8.727,22.442-26.182,14.961-26.182,14.961s-17.816-15.074-27.428-82.285c-6.415-44.857-6.234-89.766-6.234-89.766s-7.48-31.168-31.169-28.675-26.82,17-27.428,23.689c-1.247,13.714-7.48,34.908-7.48,34.908S65.8,338.99,53.328,372.652,37.12,422.522,24.652,448.7C15.169,468.618-5.269,494.833.964,513.534s13.714,24.935,29.922,29.922,31.169,3.74,44.883-6.234S93.223,496.08,93.223,496.08l18.7-108.467Z"/>
  <path class="cls-1" d="M489.181,44.689C515.59,66.067,514.332,71.1,504.272,88.7s-17.606,13.833-32.7,26.408-27.666,20.121-38.983,40.241-38.984,83-49.044,115.693-16.348,70.421-10.06,86.769c12.518,32.548,17.605,26.408,32.7,31.439s83-46.529,83-71.68S459,307.513,448.94,289.908s-7.545-25.151-5.03-36.469,5.03-22.635,22.636-33.953,105.632,0,105.632,0,25.151,5.03,27.666,22.636-25.151,162.221-30.181,186.114,0.725,49.468-2.515,61.619c-5.03,18.863-10.06,26.408-27.665,27.666s-28.924-7.546-33.954-21.378S491.7,450.872,491.7,450.872s5.031-3.773-7.545,3.772-49.043,33.953-81.739,31.438-41.5-5.03-57.847-21.378-28.923-25.15-28.923-81.739,1.258-94.315,13.833-150.9,31.438-89.284,42.756-106.89,28.923-46.528,47.786-61.619S462.773,23.311,489.181,44.689Z"/>
</svg>
